<svg xmlns="http://www.w3.org/2000/svg" viewBox="0 0 199.98 7"><defs><style>.cls-1,.cls-2{fill:none;stroke:#43c9c7;stroke-width:2px;}.cls-2{stroke-miterlimit:10;}</style></defs><title>le_bachramushque</title><g id="Layer_2" data-name="Layer 2"><g id="Layer_1-2" data-name="Layer 1"><path class="cls-1" d="M10,7A6,6,0,0,1,22,7"/><path class="cls-1" d="M34.1,7a6,6,0,0,1,12,0"/><path class="cls-1" d="M58,7A6,6,0,1,1,70,7"/><path class="cls-1" d="M82.08,7a6,6,0,0,1,12,0"/><path class="cls-2" d="M105.88,7a6,6,0,0,1,12,0"/><path class="cls-2" d="M130,7a6,6,0,0,1,12,0"/><path class="cls-2" d="M153.86,7a6,6,0,0,1,12,0"/><path class="cls-2" d="M177.94,7a6,6,0,0,1,12,0"/><line class="cls-1" y1="6" x2="9.57" y2="6"/><line class="cls-1" x1="22.35" y1="6" x2="33.6" y2="6"/><line class="cls-1" x1="46.46" y1="6" x2="57.39" y2="6"/><line class="cls-1" x1="70.46" y1="6" x2="81.35" y2="6"/><line class="cls-1" x1="94.49" y1="6" x2="105.4" y2="6"/><line class="cls-2" x1="118.37" y1="6" x2="129.82" y2="6"/><line class="cls-2" x1="142.27" y1="6" x2="153.41" y2="6"/><line class="cls-2" x1="166.49" y1="6" x2="178" y2="6"/><line class="cls-2" x1="189.94" y1="6" x2="199.98" y2="6"/></g></g></svg>